HIERARCHY
ROOT Hips
{
	OFFSET 0.000000 0.000000 0.000000
	CHANNELS 6 Xposition Yposition Zposition Zrotation Yrotation Xrotation 
	JOINT LowerBack
	{
		OFFSET 0.000000 0.000000 0.000000
		CHANNELS 3 Zrotation Yrotation Xrotation
		JOINT Spine
		{
			OFFSET 0.028270 2.035590 -0.193380
			CHANNELS 3 Zrotation Yrotation Xrotation
			JOINT Spine1
			{
				OFFSET 0.056720 2.048850 -0.042750
				CHANNELS 3 Zrotation Yrotation Xrotation
				JOINT Neck
				{
					OFFSET 0.000000 0.000000 0.000000
					CHANNELS 3 Zrotation Yrotation Xrotation
					JOINT Neck1
					{
						OFFSET -0.054170 1.746240 0.172020
						CHANNELS 3 Zrotation Yrotation Xrotation
						JOINT Head
						{
							OFFSET 0.104070 1.761360 -0.123970
							CHANNELS 3 Zrotation Yrotation Xrotation
							End Site
							{
								OFFSET 0.000000 0.000000 0.000000
							}
						}
					}
				}
				JOINT LeftShoulder
				{
					OFFSET 0.000000 0.000000 0.000000
					CHANNELS 3 Zrotation Yrotation Xrotation
					JOINT LeftArm
					{
						OFFSET 3.362410 1.200890 -0.311210
						CHANNELS 3 Zrotation Yrotation Xrotation
						JOINT LeftForeArm
						{
							OFFSET 4.983000 -0.000000 -0.000000
							CHANNELS 3 Zrotation Yrotation Xrotation
							JOINT LeftHand
							{
								OFFSET 3.483560 -0.000000 -0.000000
								CHANNELS 3 Zrotation Yrotation Xrotation
								JOINT LeftFingerBase
								{
									OFFSET 0.000000 0.000000 0.000000
									CHANNELS 3 Zrotation Yrotation Xrotation
									JOINT LeftHandIndex1
									{
										OFFSET 0.715260 -0.000000 -0.000000
										CHANNELS 3 Zrotation Yrotation Xrotation
										End Site
										{
											OFFSET 0.000000 0.000000 0.000000
										}
									}
								}
								JOINT LThumb
								{
									OFFSET 0.000000 0.000000 0.000000
									CHANNELS 3 Zrotation Yrotation Xrotation
									End Site
									{
										OFFSET 0.000000 0.000000 0.000000
									}
								}
							}
						}
					}
				}
				JOINT RightShoulder
				{
					OFFSET 0.000000 0.000000 0.000000
					CHANNELS 3 Zrotation Yrotation Xrotation
					JOINT RightArm
					{
						OFFSET -3.136600 1.374050 -0.404650
						CHANNELS 3 Zrotation Yrotation Xrotation
						JOINT RightForeArm
						{
							OFFSET -5.241900 -0.000000 -0.000000
							CHANNELS 3 Zrotation Yrotation Xrotation
							JOINT RightHand
							{
								OFFSET -3.444170 -0.000000 -0.000000
								CHANNELS 3 Zrotation Yrotation Xrotation
								JOINT RightFingerBase
								{
									OFFSET 0.000000 0.000000 0.000000
									CHANNELS 3 Zrotation Yrotation Xrotation
									JOINT RightHandIndex1
									{
										OFFSET -0.622530 -0.000000 -0.000000
										CHANNELS 3 Zrotation Yrotation Xrotation
										End Site
										{
											OFFSET 0.000000 0.000000 0.000000
										}
									}
								}
								JOINT RThumb
								{
									OFFSET 0.000000 0.000000 0.000000
									CHANNELS 3 Zrotation Yrotation Xrotation
									End Site
									{
										OFFSET 0.000000 0.000000 0.000000
									}
								}
							}
						}
					}
				}
			}
		}
	}
}
}
MOTION
Frames: 15
Frame Time: 0.008333
5.765476 15.388986 1.759043 75.392339 -85.895778 -35.656634 9.782379 0.184078 8.505823 1.823332 0.284737 -0.835791 -3.431907 0.173434 0.438271 5.823623 -7.108009 -6.169489 -1.648821 -0.112654 -0.164314 0.000000 0.000000 0.000000 2.111605 12.288436 2.626265 -72.536538 20.201202 24.868835 -0.977687 -61.895243 0.006365 -4.413008 6.996379 -0.269793 0.025471 0.039960 -0.000000 0.000000 0.000000 0.000000 0.000000 0.000000 0.000000 4.402394 -2.391691 -0.254833 60.080965 13.472207 3.001047 0.297665 79.822161 -0.050953 -9.677666 2.966461 -0.286714 0.176831 -0.366230 0.000000 0.000000 0.000000 0.000000 0.000000 0.000000 0.000000 
5.641521 15.412926 1.737934 75.117099 -85.943758 -35.161166 9.480371 0.257434 8.535695 1.766208 0.366704 -0.823324 -3.382065 0.257603 0.440617 5.752576 -7.098239 -6.142276 -1.602594 -0.109469 -0.159568 0.000000 0.000000 0.000000 2.091348 12.459128 2.623856 -72.354357 20.743443 24.977774 -0.965559 -62.289544 0.006536 -4.502341 7.033203 -0.276909 0.027751 0.037970 -0.000000 0.000000 0.000000 0.000000 0.000000 0.000000 0.000000 4.147442 -2.334188 -0.272367 59.488657 13.940313 3.122601 0.278292 80.513966 -0.052317 -9.825435 2.949885 -0.290012 0.180927 -0.369738 0.000000 0.000000 0.000000 0.000000 0.000000 0.000000 0.000000 
5.516063 15.436359 1.717630 74.768071 -85.996710 -34.584937 9.175867 0.325881 8.542727 1.707524 0.442614 -0.817201 -3.336576 0.335934 0.443795 5.686996 -7.105569 -6.127452 -1.558579 -0.106313 -0.157658 0.000000 0.000000 0.000000 2.063658 12.635107 2.621159 -72.161320 21.272511 25.091638 -0.953321 -62.710390 0.006689 -4.582223 7.072721 -0.283623 0.029880 0.036073 -0.000000 0.000000 0.000000 0.000000 0.000000 0.000000 0.000000 3.908544 -2.294832 -0.286633 58.888243 14.383420 3.236589 0.258702 81.219747 -0.053714 -9.974787 2.911145 -0.291310 0.185249 -0.372904 0.000000 0.000000 0.000000 0.000000 0.000000 0.000000 0.000000 
5.388992 15.459009 1.697988 74.407070 -86.051418 -33.993287 8.864075 0.388680 8.529300 1.646192 0.511816 -0.818580 -3.295147 0.407820 0.441888 5.623894 -7.118584 -6.118804 -1.516081 -0.103225 -0.156724 0.000000 0.000000 0.000000 2.025118 12.790439 2.618083 -71.962226 21.821537 25.180693 -0.940327 -63.174407 0.006845 -4.656129 7.113729 -0.290037 0.031984 0.034267 -0.000000 0.000000 0.000000 0.000000 0.000000 0.000000 0.000000 3.675871 -2.261901 -0.296711 58.296103 14.785584 3.339655 0.238892 81.935162 -0.055136 -10.124293 2.858107 -0.291208 0.189726 -0.375864 0.000000 0.000000 0.000000 0.000000 0.000000 0.000000 0.000000 
5.260196 15.480767 1.679150 74.014237 -86.112613 -33.373541 8.550164 0.446346 8.500393 1.583457 0.575166 -0.824837 -3.257615 0.474009 0.440211 5.564892 -7.143463 -6.121309 -1.475277 -0.100133 -0.158335 0.000000 0.000000 0.000000 1.983373 12.953702 2.615006 -71.756068 22.357434 25.280201 -0.927277 -63.660289 0.006983 -4.720104 7.148105 -0.295650 0.033919 0.032630 -0.000000 0.000000 0.000000 0.000000 0.000000 0.000000 0.000000 3.453643 -2.241430 -0.304646 57.710060 15.157662 3.435195 0.218749 82.660889 -0.056548 -10.266486 2.780065 -0.288506 0.194229 -0.378421 0.000000 0.000000 0.000000 0.000000 0.000000 0.000000 0.000000 
5.129629 15.501463 1.661104 73.612246 -86.179568 -32.756672 8.233034 0.498700 8.461557 1.519114 0.632760 -0.834672 -3.223682 0.534573 0.438780 5.509998 -7.177958 -6.134346 -1.435888 -0.097014 -0.162369 0.000000 0.000000 0.000000 1.943366 13.127173 2.612201 -71.545791 22.877264 25.394907 -0.914284 -64.162750 0.007104 -4.774058 7.171281 -0.300162 0.035674 0.031194 -0.000000 0.000000 0.000000 0.000000 0.000000 0.000000 0.000000 3.239709 -2.231031 -0.311287 57.136975 15.496728 3.523795 0.198203 83.395999 -0.057930 -10.397869 2.677130 -0.282904 0.198659 -0.380558 0.000000 0.000000 0.000000 0.000000 0.000000 0.000000 0.000000 
4.997236 15.520902 1.643594 73.285669 -86.244925 -32.236013 7.905190 0.544372 8.417782 1.451473 0.683377 -0.848511 -3.193070 0.588356 0.431976 5.457230 -7.211425 -6.151470 -1.397329 -0.093924 -0.166925 0.000000 0.000000 0.000000 1.902431 13.285626 2.609518 -71.335327 23.411146 25.498177 -0.900811 -64.696448 0.007220 -4.821380 7.184515 -0.303873 0.037359 0.029917 -0.000000 0.000000 0.000000 0.000000 0.000000 0.000000 0.000000 3.025847 -2.220218 -0.316152 56.592410 15.787897 3.604113 0.177291 84.137092 -0.059278 -10.518208 2.557967 -0.275202 0.202944 -0.382415 0.000000 0.000000 0.000000 0.000000 0.000000 0.000000 0.000000 
4.862820 15.538977 1.626890 72.977226 -86.314966 -31.761098 7.573949 0.585059 8.374395 1.382182 0.729050 -0.863076 -3.165968 0.637264 0.426710 5.409892 -7.253882 -6.178447 -1.360079 -0.090795 -0.173843 0.000000 0.000000 0.000000 1.873370 13.461408 2.607325 -71.125800 23.917641 25.631731 -0.887702 -65.231868 0.007315 -4.859399 7.181161 -0.306283 0.038845 0.028853 -0.000000 0.000000 0.000000 0.000000 0.000000 0.000000 0.000000 2.820374 -2.218816 -0.321511 56.068770 16.043429 3.681063 0.155888 84.888185 -0.060562 -10.622298 2.413067 -0.264401 0.206997 -0.383794 0.000000 0.000000 0.000000 0.000000 0.000000 0.000000 0.000000 
4.726322 15.555510 1.610699 72.806173 -86.379451 -31.458104 7.228419 0.618952 8.334916 1.308783 0.767990 -0.879401 -3.142144 0.679622 0.416431 5.365840 -7.293957 -6.207826 -1.323451 -0.087694 -0.180892 0.000000 0.000000 0.000000 1.850150 13.624270 2.605328 -70.919875 24.434035 25.761422 -0.874306 -65.789442 0.007403 -4.893566 7.166823 -0.307892 0.040283 0.027907 -0.000000 0.000000 0.000000 0.000000 0.000000 0.000000 0.000000 2.614200 -2.215872 -0.326642 55.584071 16.248121 3.755327 0.134132 85.644303 -0.061778 -10.711182 2.256610 -0.251800 0.210768 -0.384922 0.000000 0.000000 0.000000 0.000000 0.000000 0.000000 0.000000 
4.587511 15.570447 1.595276 72.717924 -86.443844 -31.275829 6.875432 0.648049 8.301129 1.232771 0.802308 -0.895180 -3.121904 0.717430 0.407628 5.328398 -7.341266 -6.244640 -1.287935 -0.084571 -0.189629 0.000000 0.000000 0.000000 1.845290 13.802322 2.603829 -70.719193 24.923852 25.923504 -0.861383 -66.342399 0.007471 -4.922873 7.139201 -0.308701 0.041577 0.027077 -0.000000 0.000000 0.000000 0.000000 0.000000 0.000000 0.000000 2.415590 -2.220888 -0.333558 55.130557 16.413297 3.832165 0.111947 86.408988 -0.062907 -10.782501 2.083027 -0.236900 0.214219 -0.385665 0.000000 0.000000 0.000000 0.000000 0.000000 0.000000 0.000000 
4.446227 15.583732 1.580709 72.694206 -86.510474 -31.196681 6.518237 0.673705 8.271727 1.154727 0.833275 -0.910948 -3.105851 0.751939 0.399456 5.297625 -7.395536 -6.286932 -1.253622 -0.081470 -0.199427 0.000000 0.000000 0.000000 1.858539 13.988210 2.602389 -70.526845 25.395428 26.110002 -0.848819 -66.891542 0.007527 -4.952429 7.102018 -0.309009 0.042822 0.026287 -0.000000 0.000000 0.000000 0.000000 0.000000 0.000000 0.000000 2.224172 -2.233221 -0.342190 54.711901 16.536382 3.914484 0.089355 87.182344 -0.063935 -10.835565 1.897645 -0.220199 0.217337 -0.386095 0.000000 0.000000 0.000000 0.000000 0.000000 0.000000 0.000000 
4.302266 15.595234 1.566904 72.800879 -86.575259 -31.285092 6.151674 0.695350 8.245743 1.073481 0.860202 -0.927380 -3.094061 0.782507 0.390274 5.273570 -7.454828 -6.332430 -1.220154 -0.078398 -0.209597 0.000000 0.000000 0.000000 1.886337 14.173099 2.600807 -70.342915 25.862040 26.307314 -0.836371 -67.444844 0.007580 -4.986846 7.062275 -0.309518 0.044105 0.025437 -0.000000 0.000000 0.000000 0.000000 0.000000 0.000000 0.000000 2.037622 -2.251297 -0.352397 54.336573 16.616328 4.007331 0.066483 87.960393 -0.064849 -10.870581 1.712094 -0.202998 0.220109 -0.386391 0.000000 0.000000 0.000000 0.000000 0.000000 0.000000 0.000000 
4.155459 15.604941 1.553935 73.029797 -86.640435 -31.529077 5.778592 0.713985 8.219706 0.989558 0.883930 -0.945086 -3.087106 0.809944 0.380765 5.257338 -7.521693 -6.381334 -1.187660 -0.075366 -0.220160 0.000000 0.000000 0.000000 1.928215 14.357271 2.598856 -70.167827 26.324958 26.513594 -0.824021 -68.001185 0.007634 -5.030460 7.025583 -0.310728 0.045491 0.024437 -0.000000 0.000000 0.000000 0.000000 0.000000 0.000000 0.000000 1.858083 -2.277501 -0.364158 54.005969 16.657708 4.115157 0.042358 88.741907 -0.066621 -10.886745 1.531497 -0.185796 0.222535 -0.386629 0.000000 0.000000 0.000000 0.000000 0.000000 0.000000 0.000000 
4.005622 15.612873 1.542093 73.256018 -86.717602 -31.795977 5.411207 0.732426 8.186714 0.905607 0.907096 -0.964610 -3.085572 0.836763 0.374768 5.250502 -7.601702 -6.436730 -1.156413 -0.072353 -0.231960 0.000000 0.000000 0.000000 1.990098 14.554394 2.596727 -70.006918 26.766978 26.739523 -0.812175 -68.544852 0.007688 -5.085276 6.992826 -0.312739 0.046975 0.023270 -0.000000 0.000000 0.000000 0.000000 0.000000 0.000000 0.000000 1.689769 -2.316539 -0.378030 53.713330 16.667894 4.241730 0.019839 89.528430 -0.066265 -10.882158 1.357545 -0.168893 0.224614 -0.386821 0.000000 0.000000 0.000000 0.000000 0.000000 0.000000 0.000000 
3.852442 15.618929 1.531462 73.434957 -86.811537 -32.031270 5.054467 0.751615 8.140539 0.822698 0.930477 -0.987318 -3.089752 0.863693 0.372467 5.253536 -7.694638 -6.498544 -1.126340 -0.069357 -0.244946 0.000000 0.000000 0.000000 2.070271 14.762902 2.594502 -69.863401 27.192170 26.976168 -0.800793 -69.074807 0.007746 -5.153947 6.968062 -0.315951 0.048606 0.021894 -0.000000 0.000000 0.000000 0.000000 0.000000 0.000000 0.000000 1.532980 -2.367819 -0.393649 53.459675 16.649588 4.389581 179.995918 89.681933 179.933274 -10.855130 1.196531 -0.152889 0.226331 -0.387077 0.000000 0.000000 0.000000 0.000000 0.000000 0.000000 0.000000 
